<?xml version="1.0" encoding="UTF-8" standalone="no"?>
<!DOCTYPE svg PUBLIC "-//W3C//DTD SVG 1.1//EN" "http://www.w3.org/Graphics/SVG/1.1/DTD/svg11.dtd">
<svg width="100%" height="100%" viewBox="0 0 7479 1792" version="1.1" xmlns="http://www.w3.org/2000/svg" xmlns:xlink="http://www.w3.org/1999/xlink" xml:space="preserve" xmlns:serif="http://www.serif.com/" style="fill-rule:evenodd;clip-rule:evenodd;stroke-linejoin:round;stroke-miterlimit:2;">
    <g id="Krisskraft2" transform="matrix(2.93663,0,0,1.80464,6710.21,-774.546)">
        <rect x="-2285" y="429.197" width="2546.54" height="992.686" style="fill:none;"/>
        <g transform="matrix(0.957331,0.00128401,-0.0026522,1.07912,-2275.83,512.971)">
            <path d="M280.376,-6.877L287.472,0.006C287.472,0.006 137.162,323.747 137.162,323.747L361.877,751.593L355.081,759.019L128.523,327.665C127.42,325.566 127.36,322.692 128.373,320.51L280.376,-6.877Z"/>
        </g>
        <g transform="matrix(0.432752,0,0,0.583336,-2345.17,-1895.68)">
            <path d="M266.625,4126.46C265.015,4120.48 267.733,4114.05 272.689,4112.1C277.646,4110.16 282.977,4113.44 284.587,4119.42C398.365,4542.36 442.72,4992.65 279.574,5524.86C277.766,5530.76 272.329,5533.77 267.441,5531.59C262.554,5529.41 260.054,5522.84 261.863,5516.94C423.273,4990.41 379.192,4544.9 266.625,4126.46Z"/>
        </g>
        <g transform="matrix(0.828772,0.00547102,0.00132048,1.175,-2190.33,437.855)">
            <path d="M366.707,52.161C399.014,52.161 427.408,74.592 451.888,119.455C476.368,164.317 488.609,217.023 488.609,277.571C488.609,338.12 476.119,390.669 451.139,435.217C426.159,479.766 399.348,502.04 370.704,502.04L367.207,502.04" style="fill:none;fill-rule:nonzero;stroke:black;stroke-width:8.38px;"/>
        </g>
        <g transform="matrix(0.828772,0.00547102,0.00132048,1.175,-2190.33,437.855)">
            <path d="M367.207,502.04L496.103,758.039" style="fill:none;fill-rule:nonzero;stroke:black;stroke-width:8.38px;"/>
        </g>
        <g transform="matrix(0.828772,0.00547102,0.00132048,1.175,-2190.33,437.855)">
            <path d="M474.62,758.039L361.212,534.04" style="fill:none;fill-rule:nonzero;stroke:black;stroke-width:8.38px;"/>
        </g>
        <g transform="matrix(0.72083,-0.00434767,0.0011485,1.16946,-956.388,449.272)">
            <path d="M366.707,52.161C399.014,52.161 427.408,74.592 451.888,119.455C476.368,164.317 488.609,217.023 488.609,277.571C488.609,338.12 476.119,390.669 451.139,435.217C426.159,479.766 399.348,502.04 370.704,502.04" style="fill:none;fill-rule:nonzero;stroke:black;stroke-width:9.09px;"/>
        </g>
        <g transform="matrix(0.72083,-0.00434767,0.0011485,1.16946,-956.388,449.272)">
            <path d="M367.207,502.04L496.103,758.039" style="fill:none;fill-rule:nonzero;stroke:black;stroke-width:9.09px;"/>
        </g>
        <g transform="matrix(0.72083,-0.00434767,0.0011485,1.16946,-956.388,449.272)">
            <path d="M474.62,758.039L361.212,534.04" style="fill:none;fill-rule:nonzero;stroke:black;stroke-width:9.09px;"/>
        </g>
        <g transform="matrix(-0.0378512,-0.000266546,0.00143892,1.17335,-1611.18,443.747)">
            <path d="M551.058,52.161L567.545,52.161L567.545,758.039" style="fill:none;fill-rule:nonzero;stroke:black;stroke-width:12.8px;"/>
        </g>
        <g transform="matrix(0.828772,0.00583617,0.00144052,1.17466,-2044.23,458.897)">
            <g transform="matrix(1,0,0,1,-3.24952,-3.21748)">
                <path d="M722.919,39.926C753.561,39.926 777.874,61.259 795.86,103.925" style="fill:none;fill-rule:nonzero;stroke:black;stroke-width:8.38px;"/>
            </g>
            <g transform="matrix(1,0,0,1,-3.24952,-3.21748)">
                <path d="M795.86,151.925C788.199,125.572 777.791,104.867 764.635,89.808C751.479,74.749 736.741,67.22 720.421,67.22C704.101,67.22 673.126,254.826 696.44,287.454C706.432,301.257 717.673,314.904 730.163,328.394C742.653,341.885 755.143,356.316 767.633,371.688C780.123,387.061 791.447,403.374 801.605,420.629C811.764,437.884 820.09,459.06 826.585,484.158C833.08,509.256 836.327,536.864 836.327,566.981L836.327,576.393C836.327,636 825.586,683.372 804.103,718.509" style="fill:none;fill-rule:nonzero;stroke:black;stroke-width:8.38px;"/>
            </g>
            <g transform="matrix(1,0,0,1,-3.24952,-3.21748)">
                <path d="M746.056,745.803C771.036,745.803 775.043,728.862 793.362,698.745C811.68,668.627 820.84,628.471 820.84,578.275L820.84,572.628C820.84,541.256 816.51,512.55 807.85,486.511C799.19,460.472 788.366,439.139 775.376,422.511" style="fill:none;fill-rule:nonzero;stroke:black;stroke-width:8.38px;"/>
            </g>
        </g>
        <g transform="matrix(0.72083,-0.00411833,0.00118373,1.14175,-1728.04,478.85)">
            <g transform="matrix(1,0,0,1,-3.24952,-3.21748)">
                <path d="M1796.05,35.22L1983.4,758.039" style="fill:none;fill-rule:nonzero;stroke:black;stroke-width:9.19px;"/>
            </g>
            <g transform="matrix(1,0,0,1,-3.24952,-3.21748)">
                <path d="M1965.91,758.039L1894.97,488.864L1694.63,488.864" style="fill:none;fill-rule:nonzero;stroke:black;stroke-width:9.19px;"/>
            </g>
            <path d="M1791.3,96.943L1885.73,458.353" style="fill:none;stroke:black;stroke-width:9.19px;"/>
        </g>
        <g transform="matrix(0.870969,-0.00526732,0.0011485,1.17259,-1944.65,458.939)">
            <path d="M2035.86,52.161L2169.25,52.161" style="fill:none;fill-rule:nonzero;stroke:black;stroke-width:8.18px;"/>
        </g>
        <g transform="matrix(0.870969,-0.00526732,0.0011485,1.17259,-1944.65,458.939)">
            <path d="M2169.25,79.455L2052.34,79.455L2052.34,461.57L2149.76,461.57" style="fill:none;fill-rule:nonzero;stroke:black;stroke-width:8.18px;"/>
        </g>
        <g transform="matrix(0.870969,-0.00526732,0.0011485,1.17259,-1944.65,458.939)">
            <path d="M2149.76,488.864L2052.34,488.864L2052.34,758.039" style="fill:none;fill-rule:nonzero;stroke:black;stroke-width:8.18px;"/>
        </g>
        <g transform="matrix(0.881034,-0.00530513,0.0011485,1.16752,-1905.99,459.733)">
            <path d="M2191.73,52.161L2380.08,52.161" style="fill:none;fill-rule:nonzero;stroke:black;stroke-width:8.14px;"/>
        </g>
        <g transform="matrix(0.881034,-0.00530513,0.0011485,1.16752,-1905.99,459.733)">
            <path d="M2380.08,79.455L2294.65,79.455L2294.65,758.039" style="fill:none;fill-rule:nonzero;stroke:black;stroke-width:8.14px;"/>
        </g>
        <g transform="matrix(0.957324,-0.0051295,0.00120248,1.08774,-1086.78,515.782)">
            <path d="M280.368,-6.826L287.479,-0.045L137.148,323.742L361.889,751.636L355.069,758.976L128.512,327.622C127.423,325.549 127.364,322.719 128.366,320.562L280.368,-6.826Z"/>
        </g>
        <g transform="matrix(0.432752,0,0,0.587991,-1154.67,-1913.67)">
            <path d="M266.618,4126.41C265.02,4120.47 267.75,4114.09 272.71,4112.18C277.671,4110.27 282.995,4113.53 284.594,4119.48C398.362,4542.38 442.716,4992.64 279.583,5524.8C277.787,5530.66 272.357,5533.67 267.464,5531.52C262.572,5529.36 260.058,5522.86 261.855,5517C423.277,4990.42 379.194,4544.89 266.618,4126.41Z"/>
        </g>
    </g>
</svg>
